# File created by Blade
# Date/Time:  Tue Sep 30 19:08:00 2014
#---------------------------------------------------------
:version 1.10
:name HOM
:units
  mass 1.0
  length 1.000000
  angle deg
:documentation
     Acclaim Skeleton File
:root
   axis xyz
   order TX TY TZ RX RY RZ
   position 0.000000 0.000000 0.000000
   orientation 0 0 0
:bonedata
   begin
      id 1
      name Spine_dum
      direction 0.000000 1.000000 0.000000
      length 7.508948
      axis 0.0 0.0 0.0 xyz
   end
   begin
      id 2
      name LeftUpLeg_dum
      direction 1.000000 0.000000 0.000000
      length 3.000560
      axis 0.0 0.0 0.0 xyz
   end
   begin
      id 3
      name RightUpLeg_dum
      direction -1.000000 0.000000 0.000000
      length 3.000560
      axis 0.0 0.0 0.0 xyz
   end
   begin
      id 4
      name Spine
      direction 0.000000 1.000000 0.000000
      length 0.000000
      axis 0.0 0.0 0.0 xyz
      dof rx ry rz
   end
   begin
      id 5
      name Spine_dum1
      direction 0.000000 1.000000 0.000000
      length 13.861154
      axis 0.0 0.0 0.0 xyz
   end
   begin
      id 6
      name Spine_dum2
      direction 0.000000 1.000000 0.000000
      length 8.204781
      axis 0.0 0.0 0.0 xyz
   end
   begin
      id 7
      name Spine_dum3
      direction 0.000000 1.000000 0.000000
      length 8.204781
      axis 0.0 0.0 0.0 xyz
   end
   begin
      id 8
      name Head
      direction 0.000000 1.000000 0.000000
      length 4.527550
      axis 0.0 0.0 0.0 xyz
      dof rx ry rz
   end
   begin
      id 9
      name LeftShoulder
      direction 1.000000 0.000000 0.000000
      length 6.635956
      axis 0.0 0.0 -90.0 xyz
      dof rx ry rz
   end
   begin
      id 10
      name LeftArm
      direction 1.000000 0.000000 0.000000
      length 10.274218
      axis 0.0 0.0 -90.0 xyz
      dof rx ry rz
   end
   begin
      id 11
      name LeftForeArm
      direction 1.000000 0.000000 0.000000
      length 8.522147
      axis 0.0 0.0 -90.0 xyz
      dof ry rz rx
   end
   begin
      id 12
      name LeftHand
      direction 0.000000 0.000000 0.000000
      length 0.000000
      axis 0.0 0.0 -90.0 xyz
      dof rx ry rz
   end
   begin
      id 13
      name LeftHand_dum1
      direction 0.000000 0.000000 0.000000
      length 0.000000
      axis 0.0 0.0 -90.0 xyz
   end
   begin
      id 14
      name LeftHand_dum2
      direction 1.000000 0.000000 0.000000
      length 3.937000
      axis 0.0 0.0 -90.0 xyz
   end
   begin
      id 15
      name LeftHandThumb1
      direction 0.000000 0.000000 1.000000
      length 3.937000
      axis 0.0 0.0 -90.0 xyz
      dof rx rz ry
   end
   begin
      id 16
      name RightShoulder
      direction -1.000000 0.000000 0.000000
      length 6.635956
      axis 0.0 0.0 90.0 xyz
      dof rx ry rz
   end
   begin
      id 17
      name RightArm
      direction -1.000000 0.000000 0.000000
      length 10.274218
      axis 0.0 0.0 90.0 xyz
      dof rx ry rz
   end
   begin
      id 18
      name RightForeArm
      direction -1.000000 0.000000 0.000000
      length 8.522147
      axis 0.0 0.0 90.0 xyz
      dof ry rz rx
   end
   begin
      id 19
      name RightHand
      direction 0.000000 0.000000 0.000000
      length 0.000000
      axis 0.0 0.0 90.0 xyz
      dof rx ry rz
   end
   begin
      id 20
      name RightHand_dum1
      direction 0.000000 0.000000 0.000000
      length 0.000000
      axis 0.0 0.0 90.0 xyz
   end
   begin
      id 21
      name RightHand_dum2
      direction -1.000000 0.000000 0.000000
      length 3.937000
      axis 0.0 0.0 90.0 xyz
   end
   begin
      id 22
      name RightHandThumb1
      direction 0.000000 0.000000 1.000000
      length 3.937000
      axis 0.0 0.0 90.0 xyz
      dof rx rz ry
   end
   begin
      id 23
      name LeftUpLeg
      direction 0.000000 -1.000000 0.000000
      length 16.490845
      axis 0.0 0.0 0.0 xyz
      dof rx ry rz
   end
   begin
      id 24
      name LeftLeg
      direction 0.000000 -1.000000 0.000000
      length 14.556576
      axis 0.0 0.0 0.0 xyz
      dof rx ry rz
   end
   begin
      id 25
      name LeftFoot
      direction 0.000000 -0.258819 0.965926
      length 4.831116
      axis 15.0 0.0 0.0 xyz
      dof rx ry rz
   end
   begin
      id 26
      name LeftToeBase
      direction 0.000000 0.000000 1.000000
      length 2.952750
      axis 0.0 0.0 0.0 xyz
      dof rx ry rz
   end
   begin
      id 27
      name RightUpLeg
      direction 0.000000 -1.000000 0.000000
      length 16.490845
      axis 0.0 0.0 0.0 xyz
      dof rx ry rz
   end
   begin
      id 28
      name RightLeg
      direction 0.000000 -1.000000 0.000000
      length 14.556576
      axis 0.0 0.0 0.0 xyz
      dof rx ry rz
   end
   begin
      id 29
      name RightFoot
      direction 0.000000 -0.258819 0.965926
      length 4.831116
      axis 15.0 0.0 0.0 xyz
      dof rx ry rz
   end
   begin
      id 30
      name RightToeBase
      direction 0.000000 0.000000 1.000000
      length 2.952750
      axis 0.0 0.0 0.0 xyz
      dof rx ry rz
   end
:hierarchy
   begin
      root Spine_dum LeftUpLeg_dum RightUpLeg_dum
      Spine_dum Spine
      LeftUpLeg_dum LeftUpLeg
      RightUpLeg_dum RightUpLeg
      Spine Spine_dum1 Spine_dum2 Spine_dum3
      Spine_dum1 Head
      Spine_dum2 LeftShoulder
      Spine_dum3 RightShoulder
      LeftShoulder LeftArm
      LeftArm LeftForeArm
      LeftForeArm LeftHand
      LeftHand LeftHand_dum1 LeftHand_dum2
      LeftHand_dum1 LeftHandThumb1
      RightShoulder RightArm
      RightArm RightForeArm
      RightForeArm RightHand
      RightHand RightHand_dum1 RightHand_dum2
      RightHand_dum1 RightHandThumb1
      LeftUpLeg LeftLeg
      LeftLeg LeftFoot
      LeftFoot LeftToeBase
      RightUpLeg RightLeg
      RightLeg RightFoot
      RightFoot RightToeBase
   end

# File created by Blade
# Date/Time:  Thu Sep 25 19:43:58 2014
# Frame Rate: 120.000 fps
#------------------------------------------------------
:FULLY-SPECIFIED
:DEGREES
1
root -3.183498 32.927705 -2.289429 11.890301 1.333563 -1.150989
Spine -14.250027 4.152021 0.127484
Head -10.390218 -5.318425 9.269219
LeftShoulder -15.930944 16.607559 26.238047
LeftArm 16.675326 -24.667968 -26.475707
LeftForeArm 12.860893 -0.000000 13.069868
LeftHand -24.796139 0.000000 -9.988964
LeftHandThumb1 -26.253704 0.000000 33.147579
RightShoulder -22.818422 15.320045 -39.316549
RightArm -1.646251 9.218783 24.295915
RightForeArm -30.556699 0.000000 14.788281
RightHand -10.276595 -0.000000 13.882966
RightHandThumb1 -24.326973 -0.000000 -32.862282
LeftUpLeg -5.986088 5.567897 1.035195
LeftLeg -1.003424 -0.000000 0.000000
LeftFoot -11.233730 6.592280 -14.820575
LeftToeBase 10.320029 -0.000000 -0.000000
RightUpLeg -7.789112 -3.024575 0.806158
RightLeg 1.916648 -0.000000 -0.000000
RightFoot -9.089270 -5.738620 2.184182
RightToeBase 1.170309 -0.000000 -0.000000
2
root -3.184090 32.927894 -2.289041 11.890053 1.327598 -1.149181
Spine -14.254280 4.158256 0.130509
Head -10.353153 -5.345021 9.273847
LeftShoulder -15.926956 16.618897 26.225038
LeftArm 16.725339 -24.624485 -26.465052
LeftForeArm 12.868142 -0.000000 13.025479
LeftHand -24.742311 0.000000 -9.931919
LeftHandThumb1 -26.253704 0.000000 33.147579
RightShoulder -22.813811 15.302046 -39.294647
RightArm -1.609193 9.222002 24.322946
RightForeArm -30.588624 -0.000000 14.780345
RightHand -10.319174 -0.000000 13.876259
RightHandThumb1 -24.326973 -0.000000 -32.862282
LeftUpLeg -5.979756 5.585512 1.032057
LeftLeg -1.014072 -0.000000 0.000000
LeftFoot -11.216079 6.592095 -14.811833
LeftToeBase 10.304306 -0.000000 -0.000000
RightUpLeg -7.786923 -3.043016 0.805417
RightLeg 1.911841 -0.000000 -0.000000
RightFoot -9.093260 -5.697090 2.184897
RightToeBase 1.203013 -0.000000 -0.000000
3
root -3.184919 32.927986 -2.289985 11.904032 1.329178 -1.149664
Spine -14.273876 4.164651 0.142527
Head -10.309810 -5.372221 9.258322
LeftShoulder -15.894338 16.620570 26.233098
LeftArm 16.722066 -24.603699 -26.477366
LeftForeArm 12.847734 -0.000000 13.046901
LeftHand -24.762328 0.000000 -9.929301
LeftHandThumb1 -26.253704 0.000000 33.147579
RightShoulder -22.802189 15.307397 -39.302547
RightArm -1.607837 9.220448 24.347364
RightForeArm -30.592286 -0.000000 14.772113
RightHand -10.313366 -0.000000 13.905015
RightHandThumb1 -24.326973 -0.000000 -32.862282
LeftUpLeg -5.991515 5.590182 1.030984
LeftLeg -1.023582 -0.000000 0.000000
LeftFoot -11.216277 6.596705 -14.777220
LeftToeBase 10.330113 -0.000000 -0.000000
RightUpLeg -7.801322 -3.037374 0.808584
RightLeg 1.910501 -0.000000 -0.000000
RightFoot -9.093876 -5.704479 2.181688
RightToeBase 1.228317 -0.000000 -0.000000
4
root -3.186098 32.927773 -2.289656 11.907241 1.330603 -1.146560
Spine -14.280095 4.170814 0.147744
Head -10.263351 -5.404107 9.267942
LeftShoulder -15.871181 16.589548 26.252153
LeftArm 16.717156 -24.598953 -26.504902
LeftForeArm 12.791503 -0.000000 13.103501
LeftHand -24.842650 -0.000000 -9.975303
LeftHandThumb1 -26.253704 0.000000 33.147579
RightShoulder -22.844309 15.273502 -39.318573
RightArm -1.520305 9.213406 24.424856
RightForeArm -30.647846 0.000000 14.753957
RightHand -10.402996 -0.000000 13.873803
RightHandThumb1 -24.326973 -0.000000 -32.862282
LeftUpLeg -5.990206 5.597134 1.028943
LeftLeg -1.035993 -0.000000 0.000000
LeftFoot -11.203296 6.581010 -14.826833
LeftToeBase 10.303863 -0.000000 -0.000000
RightUpLeg -7.796827 -3.026419 0.806398
RightLeg 1.896328 -0.000000 -0.000000
RightFoot -9.097566 -5.709959 2.200240
RightToeBase 1.274977 -0.000000 -0.000000
5
root -3.187332 32.927631 -2.290091 11.912842 1.329351 -1.147701
Spine -14.288409 4.172085 0.153493
Head -10.223332 -5.411011 9.280255
LeftShoulder -15.852643 16.598637 26.258901
LeftArm 16.727512 -24.591081 -26.521116
LeftForeArm 12.764276 -0.000000 13.123092
LeftHand -24.885744 -0.000000 -9.954130
LeftHandThumb1 -26.253704 0.000000 33.147579
RightShoulder -22.838129 15.282726 -39.322609
RightArm -1.507056 9.159155 24.451207
RightForeArm -30.582171 -0.000000 14.750572
RightHand -10.532217 -0.000000 13.819004
RightHandThumb1 -24.326973 -0.000000 -32.862282
LeftUpLeg -5.991494 5.591955 1.031933
LeftLeg -1.044287 -0.000000 0.000000
LeftFoot -11.208477 6.588778 -14.818166
LeftToeBase 10.325085 -0.000000 -0.000000
RightUpLeg -7.797191 -3.022694 0.809481
RightLeg 1.882624 -0.000000 -0.000000
RightFoot -9.081569 -5.724056 2.194223
RightToeBase 1.197642 -0.000000 -0.000000
6
root -3.188835 32.927784 -2.290779 11.924011 1.324073 -1.146758
Spine -14.305739 4.160093 0.161158
Head -10.169608 -5.410376 9.277802
LeftShoulder -15.839257 16.573218 26.271790
LeftArm 16.702939 -24.571534 -26.531423
LeftForeArm 12.776631 -0.000000 13.149908
LeftHand -24.830823 -0.000000 -9.991045
LeftHandThumb1 -26.253704 0.000000 33.147579
RightShoulder -22.808552 15.292515 -39.328530
RightArm -1.507345 9.206982 24.498157
RightForeArm -30.610392 -0.000000 14.750455
RightHand -10.504402 -0.000000 13.836433
RightHandThumb1 -24.326973 -0.000000 -32.862282
LeftUpLeg -6.001445 5.604664 1.030663
LeftLeg -1.048436 -0.000000 0.000000
LeftFoot -11.194760 6.590273 -14.793008
LeftToeBase 10.323047 -0.000000 -0.000000
RightUpLeg -7.810129 -3.015271 0.812217
RightLeg 1.881621 -0.000000 -0.000000
RightFoot -9.077126 -5.730434 2.186287
RightToeBase 1.213445 -0.000000 -0.000000
7
root -3.190014 32.927989 -2.290912 11.925577 1.319796 -1.143483
Spine -14.312130 4.142441 0.164744
Head -10.120611 -5.401653 9.296085
LeftShoulder -15.836347 16.594626 26.274064
LeftArm 16.714185 -24.682429 -26.600761
LeftForeArm 12.851748 -0.000000 13.207015
LeftHand -24.839877 -0.000000 -9.977473
LeftHandThumb1 -26.253704 0.000000 33.147579
RightShoulder -22.773931 15.296015 -39.297900
RightArm -1.498729 9.141033 24.506755
RightForeArm -30.515425 -0.000000 14.771859
RightHand -10.521646 -0.000000 13.829444
RightHandThumb1 -24.326973 -0.000000 -32.862282
LeftUpLeg -6.001868 5.612349 1.027147
LeftLeg -1.050373 -0.000000 0.000000
LeftFoot -11.186892 6.584217 -14.800902
LeftToeBase 10.311503 -0.000000 -0.000000
RightUpLeg -7.807756 -3.001271 0.807734
RightLeg 1.873020 -0.000000 -0.000000
RightFoot -9.067141 -5.736964 2.185763
RightToeBase 1.189152 -0.000000 -0.000000
